<?xml version="1.0" encoding="utf-8"?>
<svg xmlns="http://www.w3.org/2000/svg" viewBox="0 0 48 48" width="480" height="480">
  <path fill="#FFC107" d="M42,36H28V16c0-1.1,0.9-2,2-2h8c0.6,0,1.2,0.3,1.6,0.8l6,7.7c0.3,0.4,0.4,0.8,0.4,1.2V32C46,34.2,44.2,36,42,36z" />
  <path fill="#9575CD" d="M6,36h22V12c0-2.2-1.8-4-4-4H7c-2.8,0-5,2.2-5,5v19C2,34.2,3.8,36,6,36z" />
  <path fill="#37474F" d="M37 31A5 5 0 1 0 37 41 5 5 0 1 0 37 31zM14 31A5 5 0 1 0 14 41 5 5 0 1 0 14 31z" />
  <path fill="#78909C" d="M37 33.5A2.5 2.5 0 1 0 37 38.5 2.5 2.5 0 1 0 37 33.5zM14 33.5A2.5 2.5 0 1 0 14 38.5 2.5 2.5 0 1 0 14 33.5z" />
  <path fill="#455A64" d="M42,26h-3.6c-0.3,0-0.5-0.1-0.7-0.3l-1.4-1.4c-0.2-0.2-0.4-0.3-0.7-0.3H32c-0.6,0-1-0.4-1-1v-6c0-0.6,0.4-1,1-1h5.5c0.3,0,0.6,0.1,0.8,0.4l4.5,5.4c0.1,0.2,0.2,0.4,0.2,0.6V25C43,25.6,42.6,26,42,26z" />
  <g>
    <path fill="#FFF" d="M8.6 22.1H6.4V25H5v-7h3.9v1.2H6.4V21h2.2V22.1zM12.3 22.4h-.7V25h-1.4v-7h2.3c1.2 0 2.2.6 2.2 2.1 0 1.5-.9 1.9-1 2l1.2 2.9V25h-1.5L12.3 22.4zM11.6 21.3h.8c.8 0 .8-.7.8-1 0-.2 0-1.1-.8-1.1h-.8V21.3zM19.7 22h-2.2v1.9h2.6V25h-4v-7h4v1.2h-2.6v1.7h2.2V22zM25.1 22h-2.2v1.9h2.6V25h-4v-7h4v1.2h-2.6v1.7h2.2V22z" />
  </g>
</svg>